<svg width="140" height="66" viewBox="0 0 140 66" fill="none" xmlns="http://www.w3.org/2000/svg">
<path d="M42.4755 9.01634L41.8589 8.85051C40.2028 8.48204 38.4864 8.48883 36.8332 8.87041C35.1801 9.25199 33.6312 9.99886 32.2982 11.0573C30.9651 12.1157 29.8811 13.4593 29.124 14.9914C28.3669 16.5236 27.9556 18.2061 27.9197 19.918C27.9197 19.9506 27.9197 19.9832 27.9197 20.0159V34.5741C27.9218 35.2594 28.1911 35.9164 28.6693 36.4028C29.1475 36.8892 29.7961 37.1659 30.4749 37.173H32.8443C33.5263 37.1709 34.1798 36.8964 34.6621 36.4094C35.1444 35.9225 35.4162 35.2627 35.4184 34.5741V20.0104C35.4581 18.9738 35.8945 17.9931 36.6356 17.2746C37.3768 16.5562 38.3651 16.156 39.3925 16.1581C39.6064 16.1582 39.8198 16.1764 40.0307 16.2125C40.0307 16.2125 40.413 16.2941 40.6473 16.3648C41.2898 16.5075 41.9621 16.3966 42.5263 16.0549C43.0905 15.7132 43.5039 15.1666 43.6817 14.527L44.2956 12.2134C44.3841 11.8828 44.4072 11.5379 44.3636 11.1983C44.32 10.8587 44.2105 10.5311 44.0415 10.2342C43.8725 9.9373 43.6472 9.67693 43.3785 9.46797C43.1098 9.25901 42.8029 9.10555 42.4755 9.01634Z" fill="#448459"/>
<path d="M71.5882 25.6942V11.1721C71.5861 10.4846 71.3146 9.8259 70.8331 9.34C70.3516 8.8541 69.6993 8.58053 69.0187 8.5791H66.6559C65.9758 8.58125 65.3241 8.85513 64.8432 9.34095C64.3623 9.82678 64.0912 10.4851 64.089 11.1721V25.6942C64.089 25.7241 64.089 25.7539 64.089 25.7837C64.0511 26.8295 63.6087 27.8185 62.857 28.5385C62.1052 29.2585 61.104 29.652 60.0682 29.6346C59.0325 29.6172 58.0448 29.1903 57.3171 28.4455C56.5895 27.7006 56.18 26.6973 56.1764 25.6508V11.1721C56.1743 10.4851 55.9032 9.82678 55.4222 9.34095C54.9413 8.85513 54.2897 8.58125 53.6096 8.5791H51.2468C50.5667 8.58125 49.915 8.85513 49.4341 9.34095C48.9532 9.82678 48.6821 10.4851 48.6799 11.1721V25.6942C48.6799 25.7349 48.6799 25.7729 48.6799 25.8136C48.8357 32.0683 53.8969 37.173 60.1233 37.173C66.4465 37.173 71.5721 31.9192 71.5721 25.6942H71.5882Z" fill="#3C7161"/>
<path d="M84.1456 16.7145C84.1456 15.7296 84.6681 14.8484 86.651 14.8484C87.8969 14.8484 89.8082 15.1949 90.9716 15.4104C92.2559 15.5932 93.312 14.2591 93.521 13.4871L93.796 12.4395C93.9573 11.8282 93.8899 11.1796 93.6063 10.6138C93.3226 10.048 92.8419 9.60335 92.2532 9.36208C91.9177 9.20385 89.0822 8.5791 86.6565 8.5791C80.4933 8.5791 76.5743 12.0002 76.5743 16.7145C76.5743 26.094 87.7016 24.6971 87.7016 28.6857C87.7016 29.8779 86.2935 30.7591 84.4013 30.7591C82.3662 30.7591 79.3932 30.0743 79.352 30.0662C78.6919 29.9229 78.0016 30.0368 77.4238 30.384C76.8459 30.7313 76.4246 31.2856 76.247 31.9322L75.972 32.9799C75.7928 33.6491 75.8882 34.3614 76.2371 34.9611C76.586 35.5608 77.1601 35.9991 77.8339 36.18C77.8339 36.18 81.4724 37.173 84.3958 37.173C91.6591 37.173 95.2124 32.8844 95.2124 28.582C95.2206 18.9953 84.1456 20.6021 84.1456 16.7145Z" fill="#31576C"/>
<path d="M2.56653 0C1.8865 0.00216612 1.23492 0.278622 0.754065 0.769012C0.273207 1.2594 0.00212401 1.92389 0 2.61741V5.03495C0.00212 5.72872 0.273117 6.39349 0.753899 6.88432C1.23468 7.37515 1.88625 7.65221 2.56653 7.6551H9.85804V34.5629C9.86227 35.2541 10.1336 35.9156 10.613 36.4041C11.0925 36.8926 11.7415 37.1685 12.4192 37.1721H14.7817C15.4617 37.17 16.1133 36.8935 16.5942 36.4031C17.075 35.9127 17.3461 35.2482 17.3482 34.5547V7.64688H24.6371C25.3175 7.64471 25.9695 7.36788 26.4505 6.8769C26.9314 6.38592 27.2022 5.72073 27.2036 5.02674V2.61741C27.2015 1.92389 26.9304 1.2594 26.4495 0.769012C25.9687 0.278622 25.3171 0.00216612 24.6371 0H2.56653Z" fill="#4A9353"/>
<path d="M100.765 8.36941H103.663V2.61818C103.665 1.92447 103.935 1.25978 104.414 0.769243C104.894 0.278708 105.543 0.00216676 106.221 0H108.576C109.253 0.00216676 109.903 0.278708 110.382 0.769243C110.861 1.25978 111.132 1.92447 111.134 2.61818V8.36941H114.131C114.809 8.37158 115.458 8.64812 115.937 9.13865C116.417 9.62919 116.687 10.2939 116.689 10.9876V13.3976C116.687 14.0914 116.417 14.756 115.937 15.2466C115.458 15.7371 114.809 16.0136 114.131 16.0158H111.134V34.5539C111.132 35.2477 110.861 35.9123 110.382 36.4029C109.903 36.8934 109.253 37.17 108.576 37.1721H106.221C105.543 37.17 104.894 36.8934 104.414 36.4029C103.935 35.9123 103.665 35.2477 103.663 34.5539V16.0158H101.337C101.262 16.0158 101.19 15.9994 101.118 15.9939C100.585 15.9628 100.074 15.761 99.6589 15.417C99.2436 15.073 98.9443 14.6043 98.8033 14.0768L98.1932 11.7489C98.1932 11.7489 97.2406 8.36941 100.765 8.36941Z" fill="#2A4673"/>
<path d="M128.63 25.8919L137.727 20.4217C138.425 19.9517 139 19.3025 139.397 18.5345C139.795 17.7664 140.002 16.9045 140 16.0289C140.004 15.1302 139.796 14.2446 139.397 13.4514C138.998 12.6582 138.419 11.9822 137.712 11.484C137.712 11.484 134.135 9.37636 131.245 7.58012C130.882 7.35856 130.471 7.24144 130.052 7.24045C129.634 7.23945 129.222 7.35461 128.858 7.57444C128.495 7.79428 128.192 8.11111 127.98 8.49336C127.768 8.8756 127.655 9.30991 127.651 9.75299C127.652 10.1906 127.759 10.6208 127.963 11.0016C128.167 11.3823 128.46 11.7008 128.815 11.9258L133.897 14.9932C134.534 15.3952 134.534 16.5124 133.897 16.9162L127.359 20.7567C127.214 20.8476 127.05 20.8977 126.882 20.9022C126.714 20.9067 126.547 20.8654 126.399 20.7824C126.25 20.6993 126.124 20.5773 126.032 20.4279C125.941 20.2785 125.887 20.1068 125.877 19.9292V2.18418C125.877 -0.466717 123.839 0.0384733 123.839 0.0384733L122.309 0.469426C121.98 0.564658 121.688 0.766148 121.474 1.0457C121.259 1.32525 121.132 1.66887 121.111 2.02846C121.111 2.07916 121.111 2.13348 121.111 2.18418V21.6675C121.111 21.7164 121.111 21.7725 121.111 21.8196C121.158 22.6599 121.398 23.4754 121.811 24.195C122.224 24.9145 122.796 25.5164 123.479 25.9481C124.26 26.4415 125.153 26.6974 126.062 26.6875C126.971 26.6776 127.86 26.4023 128.63 25.8919Z" fill="#273F76"/>
<path d="M48.2755 58.0621C47.434 58.0621 46.711 57.8784 46.1066 57.511C45.5021 57.1318 45.034 56.6044 44.7021 55.9288C44.3821 55.2414 44.2221 54.4473 44.2221 53.5466C44.2221 52.1836 44.5777 51.111 45.2888 50.3288C46.0118 49.5347 47.0073 49.1377 48.2755 49.1377C48.797 49.1377 49.3125 49.2384 49.8221 49.4399C50.3318 49.6414 50.7584 49.9199 51.1021 50.2755L50.6755 51.0933C50.3081 50.7377 49.917 50.4829 49.5021 50.3288C49.0873 50.1629 48.6903 50.0799 48.311 50.0799C47.351 50.0799 46.6103 50.3821 46.0888 50.9866C45.5792 51.591 45.3244 52.4503 45.3244 53.5644C45.3244 54.6784 45.5792 55.5555 46.0888 56.1955C46.6103 56.8236 47.351 57.1377 48.311 57.1377C48.6903 57.1377 49.0873 57.0607 49.5021 56.9066C49.917 56.7407 50.3081 56.4799 50.6755 56.1244L51.1021 56.9421C50.7584 57.2858 50.3258 57.5584 49.8044 57.7599C49.2947 57.9614 48.7851 58.0621 48.2755 58.0621ZM55.6171 58.0621C54.8112 58.0621 54.112 57.8844 53.5194 57.5288C52.9268 57.1614 52.4645 56.6458 52.1327 55.9821C51.8127 55.3066 51.6527 54.5125 51.6527 53.5999C51.6527 52.6992 51.8127 51.917 52.1327 51.2533C52.4645 50.5777 52.9268 50.0562 53.5194 49.6888C54.112 49.3214 54.8112 49.1377 55.6171 49.1377C56.4349 49.1377 57.1401 49.3214 57.7327 49.6888C58.3253 50.0562 58.7816 50.5777 59.1016 51.2533C59.4334 51.917 59.5994 52.6992 59.5994 53.5999C59.5994 54.5125 59.4334 55.3066 59.1016 55.9821C58.7816 56.6458 58.3253 57.1614 57.7327 57.5288C57.1401 57.8844 56.4349 58.0621 55.6171 58.0621ZM55.6171 57.1555C56.4942 57.1555 57.1934 56.8473 57.7149 56.231C58.2364 55.6029 58.4971 54.7258 58.4971 53.5999C58.4971 52.474 58.2364 51.6029 57.7149 50.9866C57.1934 50.3703 56.4942 50.0621 55.6171 50.0621C54.7401 50.0621 54.0408 50.3703 53.5194 50.9866C53.0097 51.6029 52.7549 52.474 52.7549 53.5999C52.7549 54.7258 53.0097 55.6029 53.5194 56.231C54.0408 56.8473 54.7401 57.1555 55.6171 57.1555ZM61.3883 57.9199V49.2977H62.4549V50.8088C62.9883 49.6947 63.8949 49.1377 65.1749 49.1377C66.5497 49.1377 67.4208 49.7362 67.7883 50.9333C68.0371 50.3762 68.4164 49.9377 68.926 49.6177C69.4357 49.2977 70.0283 49.1377 70.7038 49.1377C72.612 49.1377 73.566 50.2518 73.566 52.4799V57.9199H72.4816V52.5688C72.4816 51.7155 72.3275 51.0873 72.0194 50.6844C71.7231 50.2814 71.2194 50.0799 70.5083 50.0799C69.7497 50.0799 69.1453 50.3466 68.6949 50.8799C68.2446 51.4014 68.0194 52.1125 68.0194 53.0133V57.9199H66.9349V52.5688C66.9349 51.7155 66.7808 51.0873 66.4727 50.6844C66.1764 50.2814 65.6786 50.0799 64.9794 50.0799C64.209 50.0799 63.5986 50.3466 63.1483 50.8799C62.6979 51.4014 62.4727 52.1125 62.4727 53.0133V57.9199H61.3883ZM82.3155 57.9199L78.6177 49.2977H79.8266L82.8666 56.7288L85.9599 49.2977H87.0977L83.3999 57.9199H82.3155ZM91.572 58.0621C90.7661 58.0621 90.0668 57.8844 89.4742 57.5288C88.8816 57.1614 88.4194 56.6458 88.0876 55.9821C87.7676 55.3066 87.6076 54.5125 87.6076 53.5999C87.6076 52.6992 87.7676 51.917 88.0876 51.2533C88.4194 50.5777 88.8816 50.0562 89.4742 49.6888C90.0668 49.3214 90.7661 49.1377 91.572 49.1377C92.3898 49.1377 93.095 49.3214 93.6876 49.6888C94.2802 50.0562 94.7364 50.5777 95.0564 51.2533C95.3883 51.917 95.5542 52.6992 95.5542 53.5999C95.5542 54.5125 95.3883 55.3066 95.0564 55.9821C94.7364 56.6458 94.2802 57.1614 93.6876 57.5288C93.095 57.8844 92.3898 58.0621 91.572 58.0621ZM91.572 57.1555C92.449 57.1555 93.1483 56.8473 93.6698 56.231C94.1913 55.6029 94.452 54.7258 94.452 53.5999C94.452 52.474 94.1913 51.6029 93.6698 50.9866C93.1483 50.3703 92.449 50.0621 91.572 50.0621C90.695 50.0621 89.9957 50.3703 89.4742 50.9866C88.9646 51.6029 88.7098 52.474 88.7098 53.5999C88.7098 54.7258 88.9646 55.6029 89.4742 56.231C89.9957 56.8473 90.695 57.1555 91.572 57.1555ZM100.828 58.0621C99.9861 58.0621 99.2631 57.8784 98.6587 57.511C98.0542 57.1318 97.5861 56.6044 97.2542 55.9288C96.9342 55.2414 96.7742 54.4473 96.7742 53.5466C96.7742 52.1836 97.1298 51.111 97.8409 50.3288C98.5639 49.5347 99.5594 49.1377 100.828 49.1377C101.349 49.1377 101.865 49.2384 102.374 49.4399C102.884 49.6414 103.311 49.9199 103.654 50.2755L103.228 51.0933C102.86 50.7377 102.469 50.4829 102.054 50.3288C101.639 50.1629 101.242 50.0799 100.863 50.0799C99.9031 50.0799 99.1624 50.3821 98.6409 50.9866C98.1313 51.591 97.8764 52.4503 97.8764 53.5644C97.8764 54.6784 98.1313 55.5555 98.6409 56.1955C99.1624 56.8236 99.9031 57.1377 100.863 57.1377C101.242 57.1377 101.639 57.0607 102.054 56.9066C102.469 56.7407 102.86 56.4799 103.228 56.1244L103.654 56.9421C103.311 57.2858 102.878 57.5584 102.356 57.7599C101.847 57.9614 101.337 58.0621 100.828 58.0621ZM108.489 58.0621C107.162 58.0621 106.113 57.671 105.343 56.8888C104.584 56.0947 104.205 55.0103 104.205 53.6355C104.205 52.7466 104.377 51.9644 104.72 51.2888C105.064 50.6133 105.538 50.0858 106.143 49.7066C106.759 49.3273 107.464 49.1377 108.258 49.1377C109.408 49.1377 110.303 49.511 110.943 50.2577C111.583 51.0044 111.903 52.0296 111.903 53.3333V53.831H105.271C105.307 54.8977 105.597 55.7214 106.143 56.3021C106.7 56.871 107.47 57.1555 108.454 57.1555C108.987 57.1555 109.485 57.0725 109.947 56.9066C110.421 56.7407 110.883 56.4621 111.334 56.071L111.76 56.8888C111.381 57.2562 110.895 57.5466 110.303 57.7599C109.71 57.9614 109.106 58.0621 108.489 58.0621ZM108.276 50.0088C107.375 50.0088 106.67 50.2933 106.16 50.8621C105.663 51.4192 105.372 52.1421 105.289 53.031H110.925C110.901 52.0829 110.664 51.3421 110.214 50.8088C109.763 50.2755 109.117 50.0088 108.276 50.0088ZM105.787 48.1421L107.725 44.5688H108.827L110.765 48.1421H109.965L108.276 45.3866L106.587 48.1421H105.787Z" fill="black" fill-opacity="0.87"/>
</svg>